<?xml version="1.0" encoding="UTF-8"?>
<svg id="Layer_1" data-name="Layer 1" xmlns="http://www.w3.org/2000/svg" viewBox="0 0 236.81 243.29">
  <defs>
    <style>
      .cls-1 {
        fill: #56a1d8;
      }

      .cls-2 {
        fill: #071e32;
      }
    </style>
  </defs>
  <rect class="cls-2" x="18.15" y="28.51" width="195.74" height="191.21" rx="35.15" ry="35.15"/>
  <path class="cls-1" d="M94.93,77.5h-31.9v85.01h17.91v-26.55h14c8.07,0,15.38-3.27,20.67-8.56,5.29-5.29,8.56-12.6,8.56-20.67,0-16.14-13.09-29.23-29.23-29.23ZM102.41,116.48c-2.5,2.49-5.94,4.04-9.75,4.04h-11.73v-27.58h11.73c7.62,0,13.79,6.17,13.79,13.79,0,3.81-1.54,7.26-4.04,9.75Z"/>
  <path class="cls-1" d="M180.04,143.45c0,5.64-2.63,11.03-6.78,14.79-4.68,4.24-11.18,6.05-17.36,6.52-.74.06-1.48.09-2.22.11-6.87.14-14.08-1.32-20.32-4.2-.07-.03-.13-.06-.2-.09.01-5,.02-10.01.03-15.01,0,.27,4.96,1.47,5.58,1.68,5.66,1.86,12.42,3.25,18.39,2.48,1.26-.16,2.55-.48,3.53-1.29,3.68-3.06-.05-6.86-3.05-8.32-3.25-1.58-6.76-2.58-10.08-4.01-3.15-1.35-6.15-3.11-8.66-5.45-8.3-7.73-7.98-20.72.48-28.23,4.79-4.25,11.26-5.6,17.5-5.88,6.46-.28,12.98.87,18.97,3.33.23.09.47.2.6.42.11.18.11.4.11.61,0,5.11.01,10.22.02,15.33-.98-.83-2.31-1.18-3.46-1.68-1.25-.55-2.53-1.03-3.83-1.45-4.61-1.48-10.59-2.84-15.32-1.22-1.74.6-3.03,1.83-3.03,3.76,0,2.98,2.92,4.41,5.3,5.5,2.96,1.35,6.11,2.17,9.05,3.53,7.65,3.55,14.76,9.64,14.76,18.77Z"/>
</svg>