<?xml version="1.0" encoding="UTF-8"?>
<svg id="Layer_1" data-name="Layer 1" xmlns="http://www.w3.org/2000/svg" viewBox="0 0 236.81 243.29">
  <defs>
    <style>
      .cls-1 {
        fill: #9696ca;
      }

      .cls-2 {
        fill: #211b5a;
      }
    </style>
  </defs>
  <rect class="cls-2" x="19.3" y="25.97" width="195.74" height="190.59" rx="35.1" ry="35.1"/>
  <g>
    <path class="cls-1" d="M83.64,76.86c3.18,0,6.37,0,9.55,0,1.48,0,1.49,0,1.97,1.35,9.64,26.98,19.28,53.97,28.92,80.95.07.2.15.4.19.61.17.84-.06,1.13-.93,1.14-1.93.02-3.86,0-5.79,0-3.43,0-6.86,0-10.29,0-1.46,0-1.59-.09-2.05-1.43-2.03-5.91-4.06-11.82-6.06-17.74-.24-.72-.55-.99-1.35-.99-9.34.03-18.68.03-28.02,0-.75,0-1.05.23-1.27.93-1.85,5.84-3.75,11.66-5.63,17.49-.49,1.51-.71,1.67-2.28,1.67-4.56,0-9.12,0-13.69,0-1.89,0-2.08-.27-1.47-2.02,6.05-17.29,12.1-34.58,18.15-51.88,2.69-7.71,5.43-15.41,8-23.16.58-1.76.62-3.71.81-5.58.14-1.29.12-1.35,1.39-1.35,3.28,0,6.55,0,9.83,0ZM73.68,124.83h20.24c-3.46-11.14-6.91-22.24-10.27-33.03-3.26,10.81-6.61,21.9-9.97,33.03Z"/>
    <path class="cls-1" d="M182.64,131.2c.77,0,3.49.01,3.49.01,0,0-.02-6.7-.13-8.91-.19-3.75-.77-7.48-1.99-10.99-1.9-5.46-5.48-10.14-10.52-13.07-2.7-1.57-5.7-2.61-8.77-3.16-10.95-1.96-22.99.65-29.87,9.89-5.5,7.39-7.11,17.1-7.09,26.09,0,0,.06,27.58,29.35,29.76,0,0,12.83.96,23.32-3.6v-13.94s-32.59,9.91-34.72-12.23c5.01.02,10.01.03,15.02.05,7.31.02,14.61.05,21.92.07ZM157.67,107.35c6.61,0,11.97,5.34,11.97,11.93h-23.93c0-6.59,5.36-11.93,11.97-11.93Z"/>
  </g>
</svg>